:FULLY-SPECIFIED
:FORCE-ALL-JOINTS-BE-3DOF
:DEGREES
645
root 5.57979 16.4983 -3.01674 16.5337 12.4399 -1.11413
lfemur -17.4792 22.3357 -26.6757
ltibia 35.4551 -0 0
lfoot -36.0673 10.6864 -0.00518403
ltoes 23.42 -0 0
rfemur -56.8116 -27.2942 29.3694
rtibia 64.495 -0 0
rfoot -5.56995 -4.23508 -0.0559134
rtoes 4.60087 -0 0
lowerback -0.972315 -3.66674 -5.04812
upperback -2.30846 -4.89409 0.521793
thorax -1.36831 -2.36753 3.34575
lowerneck -9.80053 -7.68428 -0.189895
upperneck 5.17592 -10.8526 7.20753
head 3.72554 -5.05302 1.65302
lclavicle 0 0 0
lhumerus -41.6472 -68.4727 122.297
lradius 73.7556 -0 0
lwrist 24.1891 0 0
lhand -5.14321 2.30604 0.000465785
lfingers 0 0 0
lthumb 20.6558 31.2269 0.000446667
rclavicle 0 0 0
rhumerus -33.6493 1.9475 -74.6288
rradius 71.7543 -0 0
rwrist -20.9556 0 0
rhand -28.2506 -40.926 0.0673853
rfingers 0 0 0
rthumb -1.6279 -70.8951 0.0649804
646
root 5.56999 16.4806 -2.98708 16.9445 11.1071 -0.893828
lfemur -17.8666 22.9977 -27.1066
ltibia 36.0507 -0 0
lfoot -36.2378 10.8905 -0.00423614
ltoes 22.8412 -0 0
rfemur -58.2141 -28.0009 30.9335
rtibia 65.1767 -0 0
rfoot -6.38675 -3.7756 -0.0456868
rtoes 3.79487 -0 0
lowerback -0.922481 -3.73035 -5.18626
upperback -2.20518 -4.98142 0.350602
thorax -1.2852 -2.41447 3.24434
lowerneck -9.73405 -7.63982 -0.28242
upperneck 4.57301 -10.7496 7.36871
head 3.57429 -5.02108 1.75788
lclavicle 0 0 0
lhumerus -42.457 -69.0799 123.482
lradius 73.5129 -0 0
lwrist 24.4316 0 0
lhand -5.13611 2.74622 0.000380613
lfingers 0 0 0
lthumb 20.6627 31.6664 0.00036499
rclavicle 0 0 0
rhumerus -35.4885 0.481402 -75.4588
rradius 69.0943 -0 0
rwrist -19.4121 0 0
rhand -28.6041 -42.2058 0.0550566
rfingers 0 0 0
rthumb -1.96929 -72.1728 0.0530917
647
root 5.5618 16.4659 -2.96281 17.2996 9.93528 -0.709151
lfemur -18.2129 23.5769 -27.4909
ltibia 36.5738 -0 0
lfoot -36.3875 11.0697 -0.00290287
ltoes 22.3328 -0 0
rfemur -59.471 -28.5931 32.3313
rtibia 65.7753 -0 0
rfoot -7.10399 -3.37223 -0.0313047
rtoes 3.08704 -0 0
lowerback -0.878587 -3.78612 -5.30763
upperback -2.11426 -5.05786 0.200112
thorax -1.21214 -2.45557 3.15522
lowerneck -9.67574 -7.60069 -0.363625
upperneck 4.04395 -10.6578 7.50931
head 3.44151 -4.99281 1.8499
lclavicle 0 0 0
lhumerus -43.2167 -69.6079 124.57
lradius 73.2998 -0 0
lwrist 24.6446 0 0
lhand -5.12987 3.13279 0.000260816
lfingers 0 0 0
lthumb 20.6687 32.0523 0.000250111
rclavicle 0 0 0
rhumerus -37.0861 -0.827413 -76.1487
rradius 66.7583 -0 0
rwrist -18.0565 0 0
rhand -28.9142 -43.3295 0.0377211
rfingers 0 0 0
rthumb -2.26882 -73.2949 0.036375
648
root 5.55554 16.4548 -2.94461 17.5785 9.00221 -0.567923
lfemur -18.4925 24.0362 -27.8006
ltibia 36.99 -0 0
lfoot -36.5066 11.2123 -0.00150757
ltoes 21.9283 -0 0
rfemur -60.4876 -29.0447 33.4594
rtibia 66.2516 -0 0
rfoot -7.67455 -3.05146 -0.0162561
rtoes 2.52388 -0 0
lowerback -0.843578 -3.83043 -5.40423
upperback -2.04176 -5.1185 0.0802799
thorax -1.15397 -2.48819 3.08427
lowerneck -9.62938 -7.5695 -0.4282
upperneck 3.62329 -10.5839 7.62051
head 3.3359 -4.97016 1.92307
lclavicle 0 0 0
lhumerus -43.8557 -70.0242 125.47
lradius 73.1302 -0 0
lwrist 24.8141 0 0
lhand -5.12491 3.44036 0.00013545
lfingers 0 0 0
lthumb 20.6734 32.3593 0.00012989
rclavicle 0 0 0
rhumerus -38.3465 -1.8821 -76.6716
rradius 64.8997 -0 0
rwrist -16.978 0 0
rhand -29.1607 -44.2236 0.0195861
rfingers 0 0 0
rthumb -2.50687 -74.1875 0.0188872
